<?xml version="1.0" encoding="utf-8"?>
<!-- Generator: Adobe Illustrator 13.0.0, SVG Export Plug-In . SVG Version: 6.00 Build 14948)  -->
<!DOCTYPE svg PUBLIC "-//W3C//DTD SVG 1.1//EN" "http://www.w3.org/Graphics/SVG/1.1/DTD/svg11.dtd">
<svg version="1.1" id="Layer_1" xmlns="http://www.w3.org/2000/svg" xmlns:xlink="http://www.w3.org/1999/xlink" x="0px" y="0px"
	 width="176.1px" height="180px" viewBox="0 0 176.1 180" enable-background="new 0 0 176.1 180" xml:space="preserve">
<g>
	<path d="M171.4,116.5h-8V95.1c0-2.5,1.1-4.3,3.9-4.3c2.9,0,4.1,1.8,4.1,4.3V116.5z M171.4,130.1v13.6c0,2.5-0.9,4.3-4.1,4.3
		c-3.1,0-3.9-1.8-3.9-4.3v-23.4h12.6V94.6c0-4.7-2.7-7.6-8.7-7.6c-5.7,0-8.5,2.9-8.5,7.6v49.7c0,4.3,2.8,7.6,8.5,7.6
		c6,0,8.7-3.3,8.7-7.6v-14.1H171.4z M136.6,130.1v15c0,4.3,3.3,6.7,8.1,6.7c5.5,0,8.5-2.9,8.5-7.5v-12.7c0-3.3-0.5-5.7-2-8.3l-6-9.4
		l-2.3-3.8c-1.4-2.2-1.8-4.2-1.8-6.4v-8.7c0-2.5,0.9-4.3,3.7-4.3c2.7,0,3.6,1.8,3.6,4.3v10.3h4.6V94.3c0-4.7-2.5-7.4-8.1-7.4
		c-5.6,0-8.3,3.2-8.3,7.1v9c0,3.1,0.4,5,1.7,7.3l1.4,2.4l7.5,12.4c1.4,2.3,1.5,4.7,1.5,8.1v11c0,2.5-1.5,3.8-3.7,3.8
		c-2.3,0-3.8-1.3-3.8-3.8v-14.1H136.6z M117.1,95.2c0-2.7,1.3-4.5,4.2-4.5c3.2,0,4.2,1.8,4.2,4.5v48.4c0,2.4-1,4.5-4.2,4.5
		c-2.9,0-4.2-2-4.2-4.5V95.2z M112.5,143.6c0,5,3.4,8.3,8.8,8.3s8.8-3.3,8.8-8.3V95.2c0-5.6-3.4-8.3-8.8-8.3s-8.8,2.7-8.8,8.3V143.6
		z M93.7,96.6c0-2.5,1.5-5.9,4.3-5.9c2.9,0,4.1,1.7,4.1,4.3v48.5c0,2.9-1.3,4.5-3.7,4.5c-2,0-4.7-1.4-4.7-4.5V96.6z M89.1,174.8h4.6
		v-25.8h0.3c0.9,1.7,2.8,2.9,5.7,2.9c4.5,0,7-3.1,7-8V94.4c0-5-2.2-7.5-6.7-7.5c-2.8,0-5,1.3-6,3.2h-0.3v-2.7h-4.6V174.8z M76,151.3
		h4.6V97.7c0-4.7,2.5-7,6.6-7v-3.8c-3.3,0-5.6,2.3-6.4,3.9h-0.3v-3.4H76V151.3z M67.6,151.3V87.4H63V141c0,4.7-2.5,7-4.6,7
		c-2.7,0-3.8-1.3-3.8-5.3V87.4H50v56.9c0,5.7,2.4,7.5,6.7,7.5c2.9,0,5.2-2.3,6-3.9H63v3.4H67.6z M29.3,96.6c0-2.5,1.5-5.9,4.3-5.9
		c2.9,0,4.1,1.7,4.1,4.3v48.5c0,2.9-1.3,4.5-3.7,4.5c-2,0-4.7-1.4-4.7-4.5V96.6z M24.7,174.8h4.6v-25.8h0.3c0.9,1.7,2.8,2.9,5.7,2.9
		c4.5,0,7-3.1,7-8V94.4c0-5-2.2-7.5-6.7-7.5c-2.8,0-5,1.3-6,3.2h-0.3v-2.7h-4.6V174.8z"/>
	<path fill="#4B4A4C" d="M124.5,91.9h4.6V0h-4.6V91.9z M105,63.2c0-4.8,2.4-5.9,6.7-5.9h1.3v24.3c0,3.9-1.9,7-4.6,7
		c-2.5,0-3.4-1.1-3.4-2.9V63.2z M105,46.2V35c0-2,0.9-3.7,4.2-3.7c2.9,0,3.8,1.7,3.8,3.7v18.5h-2c-8.1,0-10.6,3.3-10.6,8.9v24.3
		c0,4.5,2.9,5.7,6.4,5.7c3.7,0,5.1-1.8,6-3.7h0.3v3.2h4.6V34c0-5-3.4-6.5-8.4-6.5c-5.2,0-8.8,1.5-8.8,6.5v12.2H105z M63.2,91.9h4.6
		V39c0-5.3,2.5-7.6,4.6-7.6c2.7,0,3.8,1.3,3.8,4.7v55.9h4.6V38.3c0-4.7,2.5-7,4.6-7c2.7,0,3.8,1.3,3.8,5.3v55.3h4.6V35
		c0-5.7-2.4-7.5-6.7-7.5c-3.4,0-6,2.3-6.7,4.2H80c-0.4-2.2-1.7-4.2-6-4.2c-2.9,0-5.2,2.3-6,3.9h-0.3V28h-4.6V91.9z M49.5,10.9h5.6
		V4.3h-5.6V10.9z M50,91.9h4.6V28H50V91.9z M24.6,91.9h4.6V38.3c0-4.7,2.5-7,4.6-7c2.7,0,3.8,1.3,3.8,5.3v55.3h4.6V35
		c0-5.7-2.4-7.5-6.7-7.5c-2.9,0-5.2,2.3-6,3.9h-0.3V28h-4.6V91.9z"/>
	<path fill="#4B4A4C" d="M4.6,63.2c0-4.8,2.4-5.9,6.7-5.9h1.3v24.3c0,3.9-1.9,7-4.6,7c-2.5,0-3.4-1.1-3.4-2.9V63.2z M4.6,46.2V35
		c0-2,0.9-3.7,4.2-3.7c2.9,0,3.8,1.7,3.8,3.7v18.5h-2C2.4,53.5,0,56.8,0,62.4v24.3c0,4.5,2.9,5.7,6.4,5.7c3.7,0,5.1-1.8,6-3.7h0.3
		v3.2h4.6V34c0-5-3.4-6.5-8.4-6.5C3.6,27.5,0,29,0,34v12.2H4.6z"/>
	<path fill="#4B4A4C" d="M172.1,173.9H171v3.8c0,1.5,0.7,2.3,2.5,2.3c1.9,0,2.6-0.8,2.6-2.2v-4c0-1.2-0.4-2.2-0.9-3.2l-2.4-4.7
		c-0.3-0.7-0.5-1.3-0.5-2v-3.3c0-0.7,0.4-1.3,1.3-1.3c0.8,0,1.3,0.4,1.3,1.2v3.7h1.1v-3.8c0-1.4-0.8-2-2.4-2c-1.5,0-2.5,0.8-2.5,2.2
		v3.1c0,0.8,0.3,2,0.8,2.9l2.5,4.7c0.4,1,0.6,1.6,0.6,2.8v3.7c0,1-0.4,1.4-1.5,1.4c-1.1,0-1.4-0.6-1.4-1.3V173.9z M160.7,179.9h1.2
		v-13.3c0-1.3-0.1-4.4-0.1-7.2h0.1c0.1,2.5,0.6,6.8,0.8,8.6l1.2,11.9h1.5l1.2-12.1c0.2-2.3,0.6-5.7,0.8-8.5h0.1
		c-0.1,2.7-0.1,5.9-0.1,7.2v13.3h1.2v-21.4h-2l-1.4,12.9c-0.2,2.2-0.4,5-0.6,7.6h-0.1c-0.1-2.6-0.3-5.4-0.5-7.6l-1.3-12.9h-2V179.9z
		 M154.2,179.9h4.3V179h-3.1v-9.7h2.7v-0.9h-2.7v-9.1h2.9v-0.9h-4.1V179.9z M150.2,177.7c0,1-0.5,1.5-1.4,1.5
		c-0.9,0-1.4-0.5-1.4-1.5v-17c0-1,0.6-1.5,1.4-1.5c0.9,0,1.4,0.5,1.4,1.5V177.7z M151.4,160.6c0-1.5-0.9-2.3-2.6-2.3
		c-1.7,0-2.6,0.8-2.6,2.3v17.1c0,1.5,1,2.3,2.6,2.3c1.7,0,2.6-0.8,2.6-2.3V160.6z M139.9,168.7v-9.3h1.3c0.9,0,1.5,0.4,1.5,1.3v6.7
		c0,0.9-0.6,1.3-1.5,1.3H139.9z M138.7,179.9h1.2v-10.3h1.5c1.6,0,2.4-0.8,2.4-2.1v-7c0-1.4-0.8-2-2.4-2h-2.7V179.9z"/>
</g>
</svg>
